# xmcd
#
# Track frame offsets:
#	150
#	7189
#	41656
#	68162
#	105914
#	131193
#	142055
#	187613
#
# Disc length: 2922 seconds
#
# Revision: 1
# Processed by: cddbd v1.5.2PL0 Copyright (c) Steve Scherf et al.
# Submitted via: audiograbber 1.83.01
#
DISCID=6b0b6808
DTITLE=Grateful Dead - 93-05-16 Sam Boyd Silver Bowl, Las Vegas NV
DYEAR=1900
DGENRE=
TTITLE0=crowd
TTITLE1=Touch Of Grey
TTITLE2=Walkin Blues
TTITLE3=Althea
TTITLE4=When I Paint My Masterpiece
TTITLE5=Tuning
TTITLE6=Row Jimmy
TTITLE7=Cassidy
EXTD=
EXTT0=
EXTT1=
EXTT2=
EXTT3=
EXTT4=
EXTT5=
EXTT6=
EXTT7=
PLAYORDER=
